hildegard-neumes.ufo
<glyph name="rh_divisio_minima" format="2">
  <advance width="16"/>
  <unicode hex="E8F3"/>
  <outline>
    <contour>
      <point x="2" y="0" type="line"/>
      <point x="14" y="0" type="line"/>
      <point x="14" y="125" type="line"/>
      <point x="2" y="125" type="line"/>
    </contour>
  </outline>
</glyph>
<glyph name="rh_divisio_maior" format="2">
  <advance width="16"/>
  <unicode hex="E8F4"/>
  <outline>
    <contour>
      <point x="2" y="0" type="line"/>
      <point x="14" y="0" type="line"/>
      <point x="14" y="500" type="line"/>
      <point x="2" y="500" type="line"/>
    </contour>
  </outline>
</glyph>
<glyph name="rh_divisio_maxima" format="2">
  <advance width="16"/>
  <unicode hex="E8F5"/>
  <outline>
    <contour>
      <point x="2" y="-125" type="line"/>
      <point x="14" y="-125" type="line"/>
      <point x="14" y="625" type="line"/>
      <point x="2" y="625" type="line"/>
    </contour>
  </outline>
</glyph>
<glyph name="rh_divisio_finalis" format="2">
  <advance width="56"/>
  <unicode hex="E8F6"/>
  <outline>
    <contour>
      <point x="0" y="-750" type="line"/>
      <point x="16" y="-750" type="line"/>
      <point x="16" y="750" type="line"/>
      <point x="0" y="750" type="line"/>
    </contour>
    <contour>
      <point x="40" y="-750" type="line"/>
      <point x="56" y="-750" type="line"/>
      <point x="56" y="750" type="line"/>
      <point x="40" y="750" type="line"/>
    </contour>
  </outline>
</glyph>
<glyph name="rh_virgula" format="2">
  <advance width="12"/>
  <unicode hex="E8F7"/>
  <outline>
    <contour>
      <point x="2" y="400" type="line"/>
      <point x="10" y="400" type="line"/>
      <point x="10" y="500" type="line"/>
      <point x="2" y="500" type="line"/>
    </contour>
  </outline>
</glyph>
<glyph name="rh_f_clef" format="2">
  <advance width="160"/>
  <unicode hex="E902"/>
  <outline>
    <contour>
      <point x="5" y="-100" type="line"/>
      <point x="30" y="-100" type="line"/>
      <point x="30" y="-5" type="line"/>
      <point x="75" y="-5" type="line"/>
      <point x="75" y="20" type="line"/>
      <point x="30" y="20" type="line"/>
      <point x="30" y="75" type="line"/>
      <point x="95" y="75" type="line"/>
      <point x="95" y="100" type="line"/>
      <point x="5" y="100" type="line"/>
    </contour>
    <contour>
      <point x="110" y="30" type="line"/>
      <point x="135" y="30" type="line"/>
      <point x="135" y="55" type="line"/>
      <point x="110" y="55" type="line"/>
    </contour>
    <contour>
      <point x="110" y="-55" type="line"/>
      <point x="135" y="-55" type="line"/>
      <point x="135" y="-30" type="line"/>
      <point x="110" y="-30" type="line"/>
    </contour>
  </outline>
</glyph>
<glyph name="rh_c_clef" format="2">
  <advance width="150"/>
  <unicode hex="E906"/>
  <outline>
    <contour>
      <point x="41" y="21" type="line"/>
      <point x="29" y="6" type="line"/>
      <point x="38" y="-36" type="line"/>
      <point x="57" y="-53" type="line"/>
      <point x="74" y="-57" type="line"/>
      <point x="90" y="-49" type="line"/>
      <point x="100" y="-46" type="line"/>
      <point x="101" y="-47" type="line"/>
      <point x="81" y="-63"/>
      <point x="82" y="-65"/>
      <point x="61" y="-80" type="curve"/>
      <point x="37" y="-92" type="line"/>
      <point x="14" y="-87" type="line"/>
      <point x="7" y="-81"/>
      <point x="7" y="-75"/>
      <point x="0" y="-68" type="curve"/>
      <point x="-3" y="-39" type="line"/>
      <point x="2" y="-6" type="line"/>
      <point x="19" y="12" type="line"/>
      <point x="44" y="32" type="line"/>
      <point x="81" y="66" type="line"/>
      <point x="118" y="53" type="line"/>
      <point x="119" y="52" type="line"/>
      <point x="76" y="20" type="line"/>
    </contour>
  </outline>
</glyph>
<glyph name="rh_punctum" format="2">
  <advance width="160"/>
  <unicode hex="E990"/>
  <outline>
    <contour>
      <point x="-9" y="-35" type="curve"/>
      <point x="-9" y="-35"/>
      <point x="-8" y="-39"/>
      <point x="-49" y="0" type="curve"/>
      <point x="-50" y="1" type="line"/>
      <point x="-5" y="36" type="line"/>
      <point x="-5" y="36"/>
      <point x="33" y="0"/>
      <point x="35" y="-3" type="curve"/>
      <point x="35" y="-4" type="line"/>
      <point x="38" y="-4"/>
      <point x="80" y="10"/>
      <point x="80" y="10" type="curve"/>
      <point x="81" y="9" type="line"/>
      <point x="49" y="-14" type="line"/>
      <point x="49" y="-14"/>
      <point x="-6" y="-35"/>
    </contour>
  </outline>
</glyph>
<glyph name="rh_punctum_inclinatum" format="2">
  <advance width="140"/>
  <unicode hex="E991"/>
  <outline>
    <contour>
      <point x="31" y="-16" type="line"/>
      <point x="-21" y="-32" type="line"/>
      <point x="-38" y="12" type="line"/>
      <point x="6" y="33" type="line"/>
      <point x="6" y="33"/>
      <point x="21" y="3"/>
      <point x="23" y="0" type="curve"/>
      <point x="23" y="-1" type="line"/>
      <point x="26" y="-1"/>
      <point x="71" y="14"/>
      <point x="71" y="14" type="curve"/>
      <point x="72" y="13" type="line"/>
    </contour>
  </outline>
</glyph>
<glyph name="rh_liquescent_asc" format="2">
  <advance width="160"/>
  <unicode hex="E994"/>
  <outline>
    <contour>
      <point x="-65" y="-30" type="line"/>
      <point x="65" y="-30" type="line"/>
      <point x="65" y="240" type="line"/>
      <point x="-65" y="240" type="line"/>
    </contour>
  </outline>
</glyph>
<glyph name="rh_liquescent_desc" format="2">
  <advance width="160"/>
  <unicode hex="E995"/>
  <outline>
    <contour>
      <point x="-65" y="-240" type="line"/>
      <point x="65" y="-240" type="line"/>
      <point x="65" y="30" type="line"/>
      <point x="-65" y="30" type="line"/>
    </contour>
  </outline>
</glyph>
<glyph name="rh_virga" format="2">
  <advance width="90"/>
  <unicode hex="E996"/>
  <outline>
    <contour>
      <point x="-35" y="-40" type="line"/>
      <point x="35" y="-40" type="line"/>
      <point x="35" y="500" type="line"/>
      <point x="-35" y="500" type="line"/>
    </contour>
  </outline>
</glyph>
<glyph name="rh_quilisma" format="2">
  <advance width="170"/>
  <unicode hex="E99B"/>
  <outline>
    <contour>
      <point x="-75" y="-25" type="line"/>
      <point x="75" y="-25" type="line"/>
      <point x="75" y="25" type="line"/>
      <point x="-75" y="25" type="line"/>
    </contour>
  </outline>
</glyph>
<glyph name="rh_oriscus" format="2">
  <advance width="200"/>
  <unicode hex="E99C"/>
  <outline>
    <contour>
      <point x="-90" y="-20" type="line"/>
      <point x="-10" y="-20" type="line"/>
      <point x="-10" y="20" type="line"/>
      <point x="-90" y="20" type="line"/>
    </contour>
    <contour>
      <point x="-10" y="-10" type="line"/>
      <point x="60" y="-25" type="line"/>
      <point x="80" y="15" type="line"/>
    </contour>
  </outline>
</glyph>
<glyph name="rh_strophicus" format="2">
  <advance width="160"/>
  <unicode hex="E99F"/>
  <outline>
    <contour>
      <point x="-70" y="-35" type="line"/>
      <point x="70" y="-35" type="line"/>
      <point x="70" y="35" type="line"/>
      <point x="-70" y="35" type="line"/>
    </contour>
  </outline>
</glyph>
<glyph name="rh_deminutum" format="2">
  <advance width="100"/>
  <unicode hex="E9A1"/>
  <outline>
    <contour>
      <point x="-30" y="-10" type="line"/>
      <point x="30" y="-10" type="line"/>
      <point x="35" y="10" type="line"/>
      <point x="-25" y="10" type="line"/>
    </contour>
  </outline>
</glyph>
<glyph name="rh_pes_short" format="2">
  <advance width="90"/>
  <unicode hex="F400"/>
  <outline>
    <contour>
      <point x="47" y="-81" type="curve"/>
      <point x="25" y="-25"/>
      <point x="-52" y="10"/>
      <point x="-116" y="-65" type="curve"/>
      <point x="-97" y="-8"/>
      <point x="-3" y="39"/>
      <point x="57" y="-10" type="curve"/>
      <point x="56" y="71" type="line"/>
      <point x="32" y="101" type="line"/>
      <point x="72" y="130" type="line"/>
      <point x="87" y="116" type="line"/>
      <point x="116" y="126" type="line"/>
      <point x="116" y="126"/>
      <point x="103" y="105"/>
      <point x="95" y="92" type="curve"/>
      <point x="95" y="-42" type="line"/>
      <point x="95" y="-42"/>
      <point x="47" y="-80"/>
    </contour>
  </outline>
</glyph>
<glyph name="rh_pes_foot" format="2">
  <advance width="90"/>
  <unicode hex="F401"/>
  <outline>
    <contour>
      <point x="76" y="71" type="line"/>
      <point x="76" y="-9" type="line"/>
      <point x="76" y="-9"/>
      <point x="34" y="-42"/>
      <point x="34" y="-43" type="curve"/>
      <point x="8" y="0"/>
      <point x="-57" y="16"/>
      <point x="-103" y="-45" type="curve"/>
      <point x="-84" y="12"/>
      <point x="-17" y="57"/>
      <point x="36" y="24" type="curve"/>
      <point x="36" y="71" type="line"/>
    </contour>
  </outline>
</glyph>
<glyph name="rh_pes_head" format="2">
  <advance width="90"/>
  <unicode hex="F402"/>
  <outline>
    <contour>
      <point x="76" y="-80" type="line"/>
      <point x="36" y="-80" type="line"/>
      <point x="36" y="-14" type="line"/>
      <point x="17" y="0" type="line"/>
      <point x="54" y="30" type="line"/>
      <point x="76" y="19" type="line"/>
      <point x="90" y="20" type="line"/>
      <point x="90" y="20"/>
      <point x="84" y="12"/>
      <point x="76" y="-1" type="curve"/>
    </contour>
  </outline>
</glyph>
<glyph name="rh_pressus" format="2">
  <advance width="240"/>
  <unicode hex="F403"/>
  <outline>
    <contour>
      <point x="-51" y="-143" type="line"/>
      <point x="-71" y="-158"/>
      <point x="-92" y="-173"/>
      <point x="-113" y="-188" type="curve"/>
      <point x="-114" y="-187" type="line"/>
      <point x="-88" y="-157" type="line"/>
      <point x="-87" y="-31" type="line"/>
      <point x="-56" y="1" type="line"/>
      <point x="-23" y="24" type="line"/>
      <point x="-23" y="23" type="line"/>
      <point x="-19" y="26" type="line"/>
      <point x="5" y="5" type="line"/>
      <point x="51" y="22" type="line"/>
      <point x="64" y="31" type="line"/>
      <point x="82" y="15" type="line"/>
      <point x="92" y="18" type="line"/>
      <point x="93" y="17" type="line"/>
      <point x="88" y="6" type="line"/>
      <point x="54" y="-18" type="line"/>
      <point x="47" y="-10"/>
      <point x="39" y="-2"/>
      <point x="32" y="6" type="curve"/>
      <point x="23" y="0" type="line"/>
      <point x="-27" y="-23" type="line"/>
      <point x="-32" y="-17"/>
      <point x="-38" y="-12"/>
      <point x="-43" y="-6" type="curve"/>
      <point x="-49" y="-15" type="line"/>
    </contour>
  </outline>
</glyph>
<glyph name="rh_flexa_short" format="2">
  <advance width="90"/>
  <unicode hex="F405"/>
  <outline>
    <contour>
      <point x="-60" y="-155" type="curve"/>
      <point x="-56" y="-144" type="line"/>
      <point x="-57" y="-60" type="line"/>
      <point x="-23" y="-16" type="line"/>
      <point x="8" y="23"/>
      <point x="49" y="36"/>
      <point x="65" y="0" type="curve"/>
      <point x="81" y="-36"/>
      <point x="67" y="-89"/>
      <point x="67" y="-89" type="curve"/>
      <point x="94" y="-88" type="line"/>
      <point x="59" y="-133" type="line"/>
      <point x="9" y="-133" type="line"/>
      <point x="9" y="-132"/>
      <point x="45" y="-54"/>
      <point x="19" y="-15" type="curve"/>
      <point x="6" y="4"/>
      <point x="-16" y="-29"/>
      <point x="-16" y="-29" type="curve"/>
      <point x="-19" y="-33"/>
      <point x="-18" y="-111"/>
      <point x="-18" y="-123" type="curve"/>
      <point x="-18" y="-124"/>
      <point x="-44" y="-144"/>
    </contour>
  </outline>
</glyph>
<glyph name="rh_flexa_head" format="2">
  <advance width="90"/>
  <unicode hex="F406"/>
  <outline>
    <contour>
      <point x="69" y="-8" type="curve"/>
      <point x="69" y="-125" type="line"/>
      <point x="31" y="-125" type="line"/>
      <point x="31" y="-90"/>
      <point x="31" y="-59"/>
      <point x="30" y="-42" type="curve"/>
      <point x="28" y="14"/>
      <point x="-18" y="-9"/>
      <point x="-18" y="-9" type="curve"/>
      <point x="-21" y="-101" type="line"/>
      <point x="-65" y="-128" type="line"/>
      <point x="-65" y="-126"/>
      <point x="-56" y="-100"/>
      <point x="-56" y="-100" type="curve"/>
      <point x="-56" y="-41" type="line"/>
      <point x="-31" y="-4" type="line"/>
      <point x="0" y="22"/>
      <point x="75" y="45"/>
    </contour>
  </outline>
</glyph>
<glyph name="rh_flexa_foot" format="2">
  <advance width="90"/>
  <unicode hex="F407"/>
  <outline>
    <contour>
      <point x="69" y="0" type="line"/>
      <point x="69" y="-75" type="line"/>
      <point x="69" y="-123" type="line"/>
      <point x="93" y="-121" type="line"/>
      <point x="31" y="-163" type="line"/>
      <point x="31" y="-162"/>
      <point x="31" y="-123"/>
      <point x="31" y="-75" type="curve"/>
      <point x="31" y="-51"/>
      <point x="31" y="-25"/>
      <point x="31" y="0" type="curve"/>
    </contour>
  </outline>
</glyph>
<glyph name="rh_pes_line_half" format="2">
  <advance width="12"/>
  <unicode hex="F409"/>
  <outline>
    <contour>
      <point x="36" y="0" type="line"/>
      <point x="76" y="0" type="line"/>
      <point x="76" y="125" type="line"/>
      <point x="36" y="125" type="line"/>
    </contour>
  </outline>
</glyph>
<glyph name="rh_flexa_line" format="2">
  <advance width="172"/>
  <outline>
    <contour>
      <point x="160" y="-260" type="line"/>
      <point x="172" y="-260" type="line"/>
      <point x="12" y="0" type="line"/>
      <point x="0" y="0" type="line"/>
    </contour>
  </outline>
</glyph>
<glyph name="rh_pes_line" format="2">
  <advance width="12"/>
  <outline>
    <contour>
      <point x="2" y="0" type="line"/>
      <point x="10" y="0" type="line"/>
      <point x="10" y="125" type="line"/>
      <point x="2" y="125" type="line"/>
    </contour>
  </outline>
</glyph>
